<?xml version="1.0" encoding="utf-8"?>
<!-- Generator: Adobe Illustrator 27.7.0, SVG Export Plug-In . SVG Version: 6.00 Build 0)  -->
<svg version="1.1" id="Layer_1" xmlns="http://www.w3.org/2000/svg" xmlns:xlink="http://www.w3.org/1999/xlink" x="0px" y="0px"
	 viewBox="0 0 24 24" style="enable-background:new 0 0 24 24;" xml:space="preserve">
<g>
	<g transform="translate(-53.01934,128) rotate(-45) scale(10.66667,10.66667)">
		<g>
			<path d="M11-3c-0.1-0.1-0.2-0.2-0.2-0.4c0-0.3,0.3-0.6,0.6-0.6l0.3,0c0.1,0,0.1,0,0.1,0.1s0,0.1-0.1,0.1l-0.3,0
				c-0.2,0-0.4,0.2-0.4,0.4c0,0.2,0.2,0.4,0.4,0.4h0.3c0.1,0,0.1,0,0.1,0.1s0,0.1-0.1,0.1h-0.3C11.3-2.8,11.1-2.9,11-3z M12.2-2.8
				C12.2-2.9,12.2-2.9,12.2-2.8c0-0.1,0-0.2,0.1-0.2h0.3c0.2,0,0.4-0.2,0.4-0.4c0-0.2-0.2-0.4-0.4-0.4l-0.3,0c-0.1,0-0.1,0-0.1-0.1
				c0-0.1,0-0.1,0.1-0.1l0.3,0c0.3,0,0.6,0.3,0.6,0.6c0,0.3-0.3,0.6-0.6,0.6L12.2-2.8C12.3-2.8,12.2-2.8,12.2-2.8z"/>
		</g>
		<g>
			<path d="M11.6-3.3C11.5-3.3,11.5-3.4,11.6-3.3c0-0.1,0-0.2,0.1-0.2h0.7c0.1,0,0.1,0,0.1,0.1c0,0.1,0,0.1-0.1,0.1L11.6-3.3
				C11.6-3.3,11.6-3.3,11.6-3.3z"/>
		</g>
	</g>
</g>
</svg>
